<?xml version="1.0"?><svg xmlns="http://www.w3.org/2000/svg" stroke="#000" viewBox="0 0 31 31"><path d="M5 5h7m2 0h1m1 0h2m1 0h7M5 6h1m5 0h1m1 0h2m1 0h1m2 0h1m5 0h1M5 7h1m1 0h3m1 0h1m1 0h2m2 0h1m1 0h1m1 0h3m1 0h1M5 8h1m1 0h3m1 0h1m2 0h1m1 0h1m2 0h1m1 0h3m1 0h1M5 9h1m1 0h3m1 0h1m1 0h1m3 0h1m1 0h1m1 0h3m1 0h1M5 10h1m5 0h1m1 0h1m2 0h2m1 0h1m5 0h1M5 11h7m1 0h1m1 0h1m1 0h1m1 0h7M13 12h5M5 13h2m1 0h1m2 0h2m1 0h2m3 0h3m1 0h2M6 14h1m1 0h1m1 0h1m2 0h1m4 0h4m1 0h1M5 15h5m1 0h1m1 0h3m1 0h4m2 0h1M5 16h2m5 0h3m1 0h1m1 0h2m1 0h4M5 17h7m2 0h2m1 0h2m1 0h1m2 0h1M13 18h1m2 0h1m1 0h1m1 0h1m1 0h1M5 19h7m1 0h1m1 0h1m4 0h2m1 0h3M5 20h1m5 0h1m3 0h6m1 0h1m2 0h1M5 21h1m1 0h3m1 0h1m4 0h1m2 0h2m1 0h2m1 0h1M5 22h1m1 0h3m1 0h1m1 0h3m8 0h2M5 23h1m1 0h3m1 0h1m2 0h1m2 0h4m1 0h2m1 0h1M5 24h1m5 0h1m1 0h1m2 0h1m2 0h3m3 0h1M5 25h7m1 0h1m2 0h6m1 0h1"></path></svg>