<?xml version="1.0" encoding="UTF-8" standalone="no"?>
<!DOCTYPE svg PUBLIC "-//W3C//DTD SVG 1.1//EN" "http://www.w3.org/Graphics/SVG/1.1/DTD/svg11.dtd">
<svg width="100%" height="100%" viewBox="0 0 29 29" version="1.1" xmlns="http://www.w3.org/2000/svg" xmlns:xlink="http://www.w3.org/1999/xlink" xml:space="preserve" xmlns:serif="http://www.serif.com/" style="fill-rule:evenodd;clip-rule:evenodd;stroke-linejoin:round;stroke-miterlimit:2;">
    <g transform="matrix(1.38095,0,0,1.38095,-5.52381,-5.52381)">
        <path d="M21,25L15,25L15,23L16,23L16,22L20,22L20,23L21,23L21,25ZM23,24L22,24L22,25L23,25L23,24ZM13,25L12,25L12,23L13,23L13,25ZM11,25L4,25L4,18L11,18L11,25ZM5,19L5,24L10,24L10,19L5,19ZM16,24L18,24L18,23L16,23L16,24ZM21,23L21,22L23,22L23,21L24,21L24,19L22,19L22,20L23,20L23,21L21,21L21,19L22,19L22,18L25,18L25,24L24,24L24,22L23,22L23,23L21,23ZM15,21L15,22L14,22L14,23L13,23L13,22L12,22L12,21L15,21ZM9,23L6,23L6,20L9,20L9,23ZM18,21L18,20L16,20L16,21L15,21L15,20L14,20L14,18L15,18L15,19L19,19L19,16L20,16L20,15L22,15L22,12L24,12L24,13L23,13L23,15L24,15L24,16L23,16L23,17L22,17L22,16L20,16L20,18L21,18L21,19L20,19L20,21L18,21ZM13,19L12,19L12,17L13,17L13,19ZM16,17L15,17L15,18L16,18L16,17ZM22,17L21,17L21,18L22,18L22,17ZM18,18L17,18L17,17L16,17L16,16L17,16L17,15L16,15L16,14L17,14L17,13L18,13L18,12L21,12L21,14L20,14L20,15L19,15L19,16L18,16L18,18ZM11,16L11,15L12,15L12,13L13,13L13,14L15,14L15,15L14,15L14,16L15,16L15,17L13,17L13,16L11,16ZM16,15L15,15L15,16L16,16L16,15ZM11,14L10,14L10,15L11,15L11,14ZM10,13L9,13L9,14L10,14L10,13ZM13,13L13,12L12,12L12,13L10,13L10,12L12,12L12,8L13,8L13,11L14,11L14,10L15,10L15,9L16,9L16,8L17,8L17,12L15,12L15,13L13,13ZM11,11L4,11L4,4L11,4L11,11ZM25,11L18,11L18,4L25,4L25,11ZM16,11L16,10L15,10L15,11L16,11ZM5,5L5,10L10,10L10,5L5,5ZM19,5L19,10L24,10L24,5L19,5ZM6,6L9,6L9,9L6,9L6,6ZM23,9L20,9L20,6L23,6L23,9ZM16,7L15,7L15,8L16,8L16,7ZM12,5L13,5L13,4L14,4L14,8L13,8L13,7L12,7L12,5ZM17,6L16,6L16,7L17,7L17,6ZM17,4L17,5L16,5L16,6L15,6L15,4L17,4ZM11,16L11,17L4,17L4,14L5,14L5,13L4,13L4,12L6,12L6,14L7,14L7,12L8,12L8,14L9,14L9,15L6,15L6,16L11,16Z"/>
    </g>
</svg>
